<svg version="1.1" id="图层_1" xmlns="http://www.w3.org/2000/svg" x="0" y="0" viewBox="0 0 800 800" style="enable-background:new 0 0 800 800" xml:space="preserve"><style>.st2{fill:#fff;stroke:#0d97ff;stroke-width:16;stroke-linecap:round;stroke-miterlimit:10}.st4{fill:#0d97ff}.st5{fill:none;stroke:#0d97ff;stroke-width:14;stroke-linecap:round;stroke-miterlimit:10}</style><circle cx="399.9" cy="399.86" r="372.5" style="fill:#0d97ff;stroke:#0d97ff;stroke-width:16;stroke-miterlimit:10"/><path d="M214.87 303.07s-19.01-11.97-16.07-24.63c0 0 17.13 6.65 25-.42 0 0-19.8-52.62 27.5-76.32 0 0-9.6 41.35 15.38 52.48 0 0 1.93-35.12 32.5-28.92 0 0-18.68 32.57 2.92 54.48" style="fill:#fff"/><path class="st2" d="M328 315.52s48.67-98.77 187.29-96.42c0 0 69.67 3.13 109.89-10.17s38.07 18.11 32.32 34.55-22.19 73.69-151.47 90.12c0 0-65.96 3.88-105.47-11.77s-55.9-4.62-55.9-4.62m-151.8 190.94c-26.34-4.55-67.69-25.94-71.9-73.63-5.2-58.91 82.3-101.35 82.3-101.35h0m226.09 69.2s43.62-34.16 76.82-40.67c5.11-1 9.98-1.34 14.4-.81h.01c16.33 1.24 28.24 14.9 29.18 31.52.87 15.26-19.06 33.35-19.06 33.35s-13.86 13.86 9.53 13.86c18.47 0 84.96-7.6 86.19-7.8 21.22-3.37 33.41 10.37 34.22 27.82.87 18.72-23.57 35.14-25.12 36.29-23.39 17.33-25.99 32.05-1.73 42.45 2.61 1.12 26.85 7.03 26.85 33.35 0 9.55-4.24 18.11-10.92 23.91-.9.88-1.88 1.72-2.94 2.51-20.79 15.59-111.75 7.8-146.4 9.53s-109.94 1.78-141.2 3.47c-32.05 1.73-102.78 4.33-104.39 4.33-17.46 0-31.62-14.16-31.62-31.62 0-14.93 10.33-27.44 24.25-30.75"/><path class="st2" d="M201.97 475.23c-.05-.15-.1-.29-.15-.43-18.62-55.92-18.4-110.35 5.02-147.92 12.06-19.35 30.28-34.24 55.24-42.55 56.92-18.97 102.57 6.9 133.99 55.48l.01.02c11.4 17.63 20.93 38.25 28.44 60.8"/><path d="M349.35 547.48c-35.73 11.9-71.03 13.19-98.46 5.62-24.59-6.78-42.86-20.68-49.43-40.44a50.307 50.307 0 0 1-2.44-12.2c-.58-7.77.57-15.76 3.28-23.72v-.01c2.28-6.68 5.65-13.35 9.99-19.86 16.65-24.97 47.66-47.77 86.65-60.75 48.25-16.08 95.72-12.79 124.09 5.52.55.36 1.07.71 1.6 1.07a68.55 68.55 0 0 1 4.57 3.4c1.18.95 2.3 1.94 3.39 2.96 6.58 6.17 11.47 13.49 14.26 21.86 13.9 41.8-29.74 93.98-97.5 116.55z" style="fill:#fff;stroke:#0d97ff;stroke-width:16;stroke-miterlimit:10"/><path class="st4" d="M260.51 403.01c-4.55 1.52-9.52-.97-11.03-5.52l-5.71-17.15c-1.52-4.55.97-9.52 5.52-11.03 4.55-1.52 9.52.97 11.03 5.52l5.71 17.15c1.51 4.54-.97 9.51-5.52 11.03z"/><path class="st5" d="M234.6 351.86s5.32-7.68 15.96-5.32"/><path class="st4" d="M333.67 378.63c-4.55 1.52-9.52-.97-11.03-5.52l-5.71-17.15c-1.52-4.55.97-9.52 5.52-11.03 4.55-1.52 9.52.97 11.03 5.52l5.71 17.15c1.52 4.55-.96 9.52-5.52 11.03z"/><path class="st5" d="M307.77 327.49s5.32-7.68 15.96-5.32"/><ellipse transform="rotate(-18.42 251.395 463.867)" class="st4" cx="251.38" cy="463.85" rx="10.28" ry="6.23"/><ellipse transform="rotate(-18.42 374.974 422.703)" class="st4" cx="374.95" cy="422.69" rx="10.28" ry="6.23"/></svg>